<svg width="72" height="72" viewBox="0 0 72 72" fill="none" xmlns="http://www.w3.org/2000/svg">
<path d="M6 36C6 21.8579 6 14.7868 10.3934 10.3934C14.7868 6 21.8579 6 36 6C50.1421 6 57.2132 6 61.6066 10.3934C66 14.7868 66 21.8579 66 36C66 50.1421 66 57.2132 61.6066 61.6066C57.2132 66 50.1421 66 36 66C21.8579 66 14.7868 66 10.3934 61.6066C6 57.2132 6 50.1421 6 36Z" stroke="#B5D94F" stroke-width="4.5"/>
<circle cx="48" cy="24" r="6" stroke="#B5D94F" stroke-width="4.5"/>
<path d="M6 37.5004L11.2548 32.9025C13.9886 30.5105 18.1088 30.6477 20.6775 33.2163L33.5466 46.0855C35.6083 48.1472 38.8537 48.4283 41.2392 46.7518L42.1338 46.1231C45.5665 43.7106 50.2108 43.9901 53.3294 46.7969L63 55.5004" stroke="#B5D94F" stroke-width="4.5" stroke-linecap="round"/>
</svg>
