<svg width="72" height="72" viewBox="0 0 72 72" fill="none" xmlns="http://www.w3.org/2000/svg">
<path d="M30 66C18.6863 66 13.0294 66 9.51472 62.4853C6 58.9706 6 56.3137 6 45" stroke="#B5D94F" stroke-width="4.5" stroke-linecap="round"/>
<path d="M66 45C66 56.3137 66 58.9706 62.4853 62.4853C58.9706 66 53.3137 66 42 66" stroke="#B5D94F" stroke-width="4.5" stroke-linecap="round"/>
<path d="M42 6C53.3137 6 58.9706 6 62.4853 9.51472C66 13.0294 66 15.6863 66 27" stroke="#B5D94F" stroke-width="4.5" stroke-linecap="round"/>
<path d="M30 6C18.6863 6 13.0294 6 9.51472 9.51472C6 13.0294 6 15.6863 6 27" stroke="#B5D94F" stroke-width="4.5" stroke-linecap="round"/>
<path d="M6 36H66" stroke="#B5D94F" stroke-width="4.5" stroke-linecap="round"/>
</svg>
